<?xml version="1.0" encoding="UTF-8"?>
<!DOCTYPE svg PUBLIC "-//W3C//DTD SVG 1.1//EN" "http://www.w3.org/Graphics/SVG/1.1/DTD/svg11.dtd">
<svg xmlns="http://www.w3.org/2000/svg" version="1.1" width="2000px" height="2000px" style="shape-rendering:geometricPrecision; text-rendering:geometricPrecision; image-rendering:optimizeQuality; fill-rule:evenodd; clip-rule:evenodd" xmlns:xlink="http://www.w3.org/1999/xlink">
<g><path style="opacity:0.989" fill="#8e2a85" d="M 1438.5,584.5 C 1439.68,584.281 1440.68,584.614 1441.5,585.5C 1389.69,744.916 1337.69,904.249 1285.5,1063.5C 1248.67,1016.5 1211.83,969.5 1175,922.5C 1162.98,947.198 1150.98,971.864 1139,996.5C 1133.51,959.928 1128.85,923.261 1125,886.5C 1186.83,824.667 1248.67,762.833 1310.5,701C 1228.68,757.777 1147.01,815.11 1065.5,873C 1061.2,872.866 1057.2,871.533 1053.5,869C 1010.17,846 966.833,823 923.5,800C 1095.23,728.132 1266.89,656.299 1438.5,584.5 Z"/></g>
<g><path style="opacity:0.966" fill="#8e2a85" d="M 611.5,897.5 C 644.735,898.239 663.068,915.072 666.5,948C 663.68,978.82 646.847,995.653 616,998.5C 585.185,995.685 568.352,978.852 565.5,948C 567.947,919.191 583.28,902.357 611.5,897.5 Z M 612.5,926.5 C 631.268,927.388 639.101,937.055 636,955.5C 628.884,968.908 618.384,972.408 604.5,966C 591.699,954.671 591.366,943.004 603.5,931C 606.437,929.199 609.437,927.699 612.5,926.5 Z"/></g>
<g><path style="opacity:0.974" fill="#8e2a85" d="M 715.5,897.5 C 731.5,897.5 747.5,897.5 763.5,897.5C 763.5,907.5 763.5,917.5 763.5,927.5C 747.497,927.333 731.497,927.5 715.5,928C 706.387,931.463 701.387,938.129 700.5,948C 701.274,957.219 705.941,963.553 714.5,967C 730.776,968.44 747.11,968.94 763.5,968.5C 763.5,978.167 763.5,987.833 763.5,997.5C 745.444,997.946 727.444,997.446 709.5,996C 680.152,986.311 667.652,966.145 672,935.5C 679.255,914.404 693.755,901.737 715.5,897.5 Z"/></g>
<g><path style="opacity:0.974" fill="#8e2a85" d="M 895.5,897.5 C 911.5,897.5 927.5,897.5 943.5,897.5C 943.5,907.5 943.5,917.5 943.5,927.5C 926.497,927.333 909.497,927.5 892.5,928C 888.984,929.256 885.984,931.256 883.5,934C 903.497,934.5 923.497,934.667 943.5,934.5C 943.5,943.5 943.5,952.5 943.5,961.5C 923.831,961.333 904.164,961.5 884.5,962C 887.704,965.517 891.704,967.517 896.5,968C 912.163,968.5 927.83,968.667 943.5,968.5C 943.5,978.167 943.5,987.833 943.5,997.5C 927.163,997.667 910.83,997.5 894.5,997C 867.957,990.961 853.29,974.461 850.5,947.5C 853.589,920.08 868.589,903.413 895.5,897.5 Z"/></g>
<g><path style="opacity:0.974" fill="#8e2a85" d="M 467.5,899.5 C 490.836,899.333 514.169,899.5 537.5,900C 552.818,905.623 560.818,916.623 561.5,933C 561.744,949.526 554.411,961.193 539.5,968C 549.5,978 559.5,988 569.5,998C 554.5,998.667 539.5,998.667 524.5,998C 515,988.5 505.5,979 496,969.5C 495.5,979.161 495.334,988.828 495.5,998.5C 486.167,998.5 476.833,998.5 467.5,998.5C 467.5,965.5 467.5,932.5 467.5,899.5 Z M 496.5,925.5 C 507.172,925.333 517.839,925.5 528.5,926C 535.468,928.911 536.134,932.911 530.5,938C 519.172,938.5 507.838,938.667 496.5,938.5C 496.5,934.167 496.5,929.833 496.5,925.5 Z"/></g>
<g><path style="opacity:0.967" fill="#8e2a85" d="M 773.5,899.5 C 782.5,899.5 791.5,899.5 800.5,899.5C 800.334,907.84 800.5,916.173 801,924.5C 809.167,916.333 817.333,908.167 825.5,900C 838.833,899.333 852.167,899.333 865.5,900C 849.621,915.377 834.288,931.211 819.5,947.5C 834.622,964.123 850.288,980.289 866.5,996C 853.167,996.667 839.833,996.667 826.5,996C 818,987.5 809.5,979 801,970.5C 800.5,979.16 800.334,987.827 800.5,996.5C 791.5,996.5 782.5,996.5 773.5,996.5C 773.5,964.167 773.5,931.833 773.5,899.5 Z"/></g>
<g><path style="opacity:0.978" fill="#8e2a85" d="M 950.5,899.5 C 982.833,899.5 1015.17,899.5 1047.5,899.5C 1047.5,908.167 1047.5,916.833 1047.5,925.5C 1035.83,925.5 1024.17,925.5 1012.5,925.5C 1012.5,949.167 1012.5,972.833 1012.5,996.5C 1003.5,996.5 994.5,996.5 985.5,996.5C 985.5,972.833 985.5,949.167 985.5,925.5C 973.833,925.5 962.167,925.5 950.5,925.5C 950.5,916.833 950.5,908.167 950.5,899.5 Z"/></g>
<g><path style="opacity:0.987" fill="#8e2a85" d="M 1464.5,900.5 C 1507.95,897.151 1545.95,909.651 1578.5,938C 1603.43,964.4 1616.93,995.9 1619,1032.5C 1631.42,1033.49 1643.92,1033.82 1656.5,1033.5C 1656.5,1059.5 1656.5,1085.5 1656.5,1111.5C 1571.83,1111.5 1487.17,1111.5 1402.5,1111.5C 1402.5,1154.17 1402.5,1196.83 1402.5,1239.5C 1458.83,1239.67 1515.17,1239.5 1571.5,1239C 1580.97,1234.25 1583.47,1227.08 1579,1217.5C 1577.46,1215.62 1575.62,1214.12 1573.5,1213C 1539.54,1211.86 1505.54,1211.03 1471.5,1210.5C 1482.17,1185.83 1492.83,1161.17 1503.5,1136.5C 1529.16,1135.33 1554.83,1135.17 1580.5,1136C 1625.7,1145.86 1651.53,1173.7 1658,1219.5C 1660,1250.99 1649.17,1277.16 1625.5,1298C 1613.32,1307.17 1599.66,1312.84 1584.5,1315C 1498.52,1316.47 1412.52,1316.97 1326.5,1316.5C 1326.5,1222.17 1326.5,1127.83 1326.5,1033.5C 1398.5,1033.5 1470.5,1033.5 1542.5,1033.5C 1536.41,998.367 1515.58,979.367 1480,976.5C 1456.15,977.751 1437.49,988.085 1424,1007.5C 1405.63,990.794 1386.96,974.461 1368,958.5C 1367.33,957.167 1367.33,955.833 1368,954.5C 1385.86,928.971 1410.02,912.471 1440.5,905C 1448.6,903.277 1456.6,901.777 1464.5,900.5 Z"/></g>
<g><path style="opacity:0.989" fill="#8e2a85" d="M 460.5,1033.5 C 530.167,1033.5 599.833,1033.5 669.5,1033.5C 669.5,1127.83 669.5,1222.17 669.5,1316.5C 647.823,1316.83 626.156,1316.5 604.5,1315.5C 584.931,1279.55 554.931,1265.38 514.5,1273C 491.214,1280.12 474.214,1294.62 463.5,1316.5C 422.022,1309.86 388.856,1289.86 364,1256.5C 336.866,1211.77 333.199,1165.1 353,1116.5C 374.788,1070.54 410.621,1042.87 460.5,1033.5 Z M 469.5,1111.5 C 510.833,1111.5 552.167,1111.5 593.5,1111.5C 593.5,1153.83 593.5,1196.17 593.5,1238.5C 552.499,1238.67 511.499,1238.5 470.5,1238C 448.037,1234.54 432.203,1222.38 423,1201.5C 412.102,1174 416.602,1149.5 436.5,1128C 446.27,1119.92 457.27,1114.42 469.5,1111.5 Z"/></g>
<g><path style="opacity:0.985" fill="#8e2a85" d="M 748.5,1033.5 C 782.168,1033.33 815.835,1033.5 849.5,1034C 791.168,1087.46 772.334,1152.63 793,1229.5C 800.145,1254.46 811.979,1276.8 828.5,1296.5C 809.84,1312.99 791.006,1329.32 772,1345.5C 723.191,1291.74 701.858,1228.41 708,1155.5C 711.252,1111.24 724.752,1070.58 748.5,1033.5 Z"/></g>
<g><path style="opacity:0.988" fill="#8e2a85" d="M 941.5,1033.5 C 1014.17,1033.33 1086.83,1033.5 1159.5,1034C 1215.02,1040.89 1254.85,1069.39 1279,1119.5C 1302.1,1185.75 1287.1,1241.75 1234,1287.5C 1217.02,1268.35 1199.85,1249.35 1182.5,1230.5C 1210.61,1209.66 1219.11,1182.66 1208,1149.5C 1196.89,1125.52 1178.06,1112.85 1151.5,1111.5C 1151.5,1179.83 1151.5,1248.17 1151.5,1316.5C 1082.17,1316.67 1012.83,1316.5 943.5,1316C 890.069,1307.06 852.569,1277.9 831,1228.5C 813.835,1176.98 821.169,1129.31 853,1085.5C 876.18,1057.49 905.68,1040.16 941.5,1033.5 Z M 950.5,1111.5 C 992.167,1111.5 1033.83,1111.5 1075.5,1111.5C 1075.5,1153.83 1075.5,1196.17 1075.5,1238.5C 1034.17,1238.67 992.832,1238.5 951.5,1238C 923.055,1232.22 905.888,1215.05 900,1186.5C 895.579,1147.1 912.413,1122.1 950.5,1111.5 Z"/></g>
<g><path style="opacity:0.985" fill="#8e2a85" d="M 527.5,1284.5 C 563.808,1283.71 586.641,1300.71 596,1335.5C 599.859,1374.3 583.026,1398.8 545.5,1409C 507.554,1412.46 483.387,1395.96 473,1359.5C 468.997,1325.67 482.497,1301.83 513.5,1288C 518.295,1286.8 522.962,1285.63 527.5,1284.5 Z"/></g>
<g><path style="opacity:0.909" fill="#8e2a85" d="M 1576.5,1334.5 C 1589.06,1333.31 1600.4,1336.47 1610.5,1344C 1611.37,1347.38 1610.04,1349.88 1606.5,1351.5C 1601.29,1348.73 1595.95,1346.23 1590.5,1344C 1583.36,1341.79 1576.69,1342.79 1570.5,1347C 1568.22,1349.4 1566.88,1352.23 1566.5,1355.5C 1585.17,1355.5 1603.83,1355.5 1622.5,1355.5C 1622.34,1357.86 1622.5,1360.19 1623,1362.5C 1628.06,1356.13 1634.22,1354.96 1641.5,1359C 1648.03,1366.41 1648.03,1373.75 1641.5,1381C 1626.38,1385.05 1619.71,1379.22 1621.5,1363.5C 1616.49,1363.33 1611.49,1363.5 1606.5,1364C 1616.38,1366.93 1620.22,1373.43 1618,1383.5C 1614.06,1389.21 1608.56,1391.54 1601.5,1390.5C 1601.5,1387.5 1601.5,1384.5 1601.5,1381.5C 1605.32,1382.21 1608.32,1381.04 1610.5,1378C 1608.46,1374.23 1605.29,1372.06 1601,1371.5C 1600.5,1382.49 1600.33,1393.49 1600.5,1404.5C 1597.81,1404.66 1595.15,1404.5 1592.5,1404C 1588.86,1398.36 1584.52,1393.36 1579.5,1389C 1576.39,1387.24 1573.06,1386.41 1569.5,1386.5C 1569.07,1383.62 1568.41,1380.79 1567.5,1378C 1574.47,1372.85 1581.8,1368.18 1589.5,1364C 1581.84,1363.5 1574.17,1363.33 1566.5,1363.5C 1566.5,1377.17 1566.5,1390.83 1566.5,1404.5C 1563.5,1404.5 1560.5,1404.5 1557.5,1404.5C 1557.5,1390.83 1557.5,1377.17 1557.5,1363.5C 1555.5,1363.5 1553.5,1363.5 1551.5,1363.5C 1551.5,1360.83 1551.5,1358.17 1551.5,1355.5C 1553.5,1355.5 1555.5,1355.5 1557.5,1355.5C 1558.61,1343.72 1564.95,1336.72 1576.5,1334.5 Z M 1632.5,1365.5 C 1636.52,1366.2 1638.02,1368.53 1637,1372.5C 1633.21,1375.27 1630.71,1374.27 1629.5,1369.5C 1629.79,1367.56 1630.79,1366.22 1632.5,1365.5 Z M 1590.5,1373.5 C 1591.65,1378.65 1591.82,1383.98 1591,1389.5C 1588.61,1386.03 1585.78,1383.03 1582.5,1380.5C 1585.19,1378.14 1587.85,1375.81 1590.5,1373.5 Z"/></g>
<g><path style="opacity:0.906" fill="#8e2a85" d="M 1346.5,1339.5 C 1356.9,1339.9 1362.23,1345.23 1362.5,1355.5C 1381.83,1355.5 1401.17,1355.5 1420.5,1355.5C 1420.5,1358.17 1420.5,1360.83 1420.5,1363.5C 1419.17,1363.5 1417.83,1363.5 1416.5,1363.5C 1416.5,1377.17 1416.5,1390.83 1416.5,1404.5C 1413.17,1404.5 1409.83,1404.5 1406.5,1404.5C 1406.67,1397.83 1406.5,1391.16 1406,1384.5C 1404.74,1382.2 1402.9,1381.37 1400.5,1382C 1398.34,1383.65 1397,1385.81 1396.5,1388.5C 1390.17,1390.93 1386.34,1388.93 1385,1382.5C 1382.92,1380.03 1380.75,1380.03 1378.5,1382.5C 1376.04,1385.34 1375.87,1388.34 1378,1391.5C 1381.32,1392.94 1384.82,1393.94 1388.5,1394.5C 1386.68,1402.31 1382.01,1404.48 1374.5,1401C 1365.86,1394.24 1364.36,1386.07 1370,1376.5C 1377.54,1369.9 1385.04,1369.9 1392.5,1376.5C 1396.47,1372.22 1400.97,1371.22 1406,1373.5C 1406.5,1370.18 1406.67,1366.85 1406.5,1363.5C 1388.16,1363.33 1369.83,1363.5 1351.5,1364C 1362.72,1367.94 1366.22,1375.44 1362,1386.5C 1358.73,1389.88 1354.9,1392.38 1350.5,1394C 1355.79,1397.62 1360.79,1401.62 1365.5,1406C 1363.58,1407.88 1361.41,1409.38 1359,1410.5C 1355.23,1408.4 1351.73,1405.9 1348.5,1403C 1343.73,1400.28 1338.73,1398.12 1333.5,1396.5C 1332.51,1393.23 1332.18,1389.9 1332.5,1386.5C 1339.55,1387.28 1346.22,1386.12 1352.5,1383C 1355.17,1380.33 1355.17,1377.67 1352.5,1375C 1350.49,1373.74 1348.32,1372.91 1346,1372.5C 1344.34,1372.39 1343.17,1373.05 1342.5,1374.5C 1344.15,1375.99 1346.15,1376.99 1348.5,1377.5C 1343.13,1386.56 1337.96,1386.23 1333,1376.5C 1331.9,1369.25 1335.06,1365.09 1342.5,1364C 1337.85,1363.5 1333.18,1363.33 1328.5,1363.5C 1328.5,1377.17 1328.5,1390.83 1328.5,1404.5C 1325.5,1404.5 1322.5,1404.5 1319.5,1404.5C 1319.5,1390.83 1319.5,1377.17 1319.5,1363.5C 1317.17,1363.5 1314.83,1363.5 1312.5,1363.5C 1312.5,1377.17 1312.5,1390.83 1312.5,1404.5C 1309.81,1404.66 1307.15,1404.5 1304.5,1404C 1301.18,1400.35 1297.52,1397.02 1293.5,1394C 1286.06,1390.42 1278.56,1387.25 1271,1384.5C 1270.58,1382.64 1270.08,1380.81 1269.5,1379C 1269.76,1377.74 1270.43,1376.74 1271.5,1376C 1280.6,1371.45 1289.93,1367.45 1299.5,1364C 1287.84,1363.5 1276.17,1363.33 1264.5,1363.5C 1264.5,1377.17 1264.5,1390.83 1264.5,1404.5C 1261.5,1404.5 1258.5,1404.5 1255.5,1404.5C 1255.5,1390.83 1255.5,1377.17 1255.5,1363.5C 1253.5,1363.5 1251.5,1363.5 1249.5,1363.5C 1249.5,1377.17 1249.5,1390.83 1249.5,1404.5C 1246.5,1404.5 1243.5,1404.5 1240.5,1404.5C 1239.56,1393.06 1233.4,1386.06 1222,1383.5C 1218.63,1383.67 1216.46,1385.33 1215.5,1388.5C 1215.98,1389.48 1216.64,1390.31 1217.5,1391C 1220.58,1390.93 1223.58,1391.1 1226.5,1391.5C 1229.9,1398.39 1227.57,1401.72 1219.5,1401.5C 1209.26,1400.36 1204.76,1394.69 1206,1384.5C 1208.9,1378.45 1213.73,1374.95 1220.5,1374C 1219.5,1371.67 1217.83,1370 1215.5,1369C 1212.18,1368.5 1208.85,1368.33 1205.5,1368.5C 1205.5,1367.17 1205.5,1365.83 1205.5,1364.5C 1198.19,1366.98 1193.35,1371.98 1191,1379.5C 1189.08,1386.48 1190.91,1392.15 1196.5,1396.5C 1201.49,1393.27 1204.16,1394.77 1204.5,1401C 1202.92,1403.87 1200.42,1405.04 1197,1404.5C 1189.72,1404.23 1185.05,1400.56 1183,1393.5C 1179.6,1377.8 1184.43,1365.3 1197.5,1356C 1249.5,1355.5 1301.5,1355.33 1353.5,1355.5C 1354.03,1352.19 1352.69,1350.03 1349.5,1349C 1343.69,1348.62 1338.36,1350.12 1333.5,1353.5C 1330.99,1351.19 1330.33,1348.53 1331.5,1345.5C 1336.31,1342.68 1341.31,1340.68 1346.5,1339.5 Z M 1224.5,1364.5 C 1229.64,1363.51 1234.97,1363.18 1240.5,1363.5C 1240.67,1370.17 1240.5,1376.84 1240,1383.5C 1237.6,1380.6 1234.77,1378.27 1231.5,1376.5C 1230.16,1371.82 1227.83,1367.82 1224.5,1364.5 Z M 1302.5,1372.5 C 1303.65,1378.32 1303.82,1384.32 1303,1390.5C 1297.92,1386.38 1292.42,1382.88 1286.5,1380C 1292.04,1377.72 1297.38,1375.22 1302.5,1372.5 Z"/></g>
<g><path style="opacity:0.914" fill="#8e2a85" d="M 623.5,1355.5 C 663.5,1355.5 703.5,1355.5 743.5,1355.5C 743.5,1358.83 743.5,1362.17 743.5,1365.5C 732.167,1365.5 720.833,1365.5 709.5,1365.5C 709.5,1368.83 709.5,1372.17 709.5,1375.5C 717.174,1375.67 724.841,1375.5 732.5,1375C 733.293,1373.91 733.96,1372.75 734.5,1371.5C 737.428,1370.52 740.428,1370.18 743.5,1370.5C 743.666,1379.17 743.5,1387.84 743,1396.5C 742.31,1399.2 740.81,1401.36 738.5,1403C 725.265,1404.46 711.932,1404.96 698.5,1404.5C 698.5,1391.5 698.5,1378.5 698.5,1365.5C 696.5,1365.5 694.5,1365.5 692.5,1365.5C 692.5,1378.5 692.5,1391.5 692.5,1404.5C 688.833,1404.5 685.167,1404.5 681.5,1404.5C 681.5,1391.5 681.5,1378.5 681.5,1365.5C 672.167,1365.5 662.833,1365.5 653.5,1365.5C 653.5,1369.5 653.5,1373.5 653.5,1377.5C 657.308,1377.84 660.974,1377.34 664.5,1376C 665.861,1374.42 666.528,1372.58 666.5,1370.5C 669.5,1370.5 672.5,1370.5 675.5,1370.5C 675.666,1379.51 675.5,1388.51 675,1397.5C 674.214,1400.58 672.381,1402.75 669.5,1404C 655.833,1404.67 642.167,1404.67 628.5,1404C 626.185,1402.89 624.685,1401.06 624,1398.5C 623.5,1389.17 623.334,1379.84 623.5,1370.5C 626.833,1370.5 630.167,1370.5 633.5,1370.5C 633.198,1378.56 633.531,1386.56 634.5,1394.5C 644.149,1395.67 653.816,1395.83 663.5,1395C 666.428,1391.74 667.262,1387.91 666,1383.5C 664.829,1384.89 663.329,1385.73 661.5,1386C 655.509,1386.5 649.509,1386.67 643.5,1386.5C 643.5,1379.5 643.5,1372.5 643.5,1365.5C 636.833,1365.5 630.167,1365.5 623.5,1365.5C 623.5,1362.17 623.5,1358.83 623.5,1355.5 Z M 733.5,1382.5 C 735.09,1386.92 734.424,1391.09 731.5,1395C 724.174,1395.5 716.841,1395.67 709.5,1395.5C 709.5,1391.83 709.5,1388.17 709.5,1384.5C 717.174,1384.67 724.841,1384.5 732.5,1384C 733.056,1383.62 733.389,1383.12 733.5,1382.5 Z"/></g>
<g><path style="opacity:0.93" fill="#8e2a85" d="M 784.5,1355.5 C 803.833,1355.5 823.167,1355.5 842.5,1355.5C 842.5,1371.83 842.5,1388.17 842.5,1404.5C 839.167,1404.5 835.833,1404.5 832.5,1404.5C 832.5,1391.5 832.5,1378.5 832.5,1365.5C 830.5,1365.5 828.5,1365.5 826.5,1365.5C 826.5,1378.5 826.5,1391.5 826.5,1404.5C 814.066,1404.96 801.733,1404.46 789.5,1403C 787.106,1401.05 785.606,1398.55 785,1395.5C 784.5,1387.17 784.334,1378.84 784.5,1370.5C 795.5,1370.5 806.5,1370.5 817.5,1370.5C 817.5,1368.83 817.5,1367.17 817.5,1365.5C 806.5,1365.5 795.5,1365.5 784.5,1365.5C 784.5,1362.17 784.5,1358.83 784.5,1355.5 Z M 793.5,1379.5 C 801.5,1379.5 809.5,1379.5 817.5,1379.5C 817.5,1385.5 817.5,1391.5 817.5,1397.5C 810.825,1397.67 804.158,1397.5 797.5,1397C 795.951,1395.79 794.785,1394.29 794,1392.5C 793.501,1388.18 793.334,1383.85 793.5,1379.5 Z"/></g>
<g><path style="opacity:0.92" fill="#8e2a85" d="M 885.5,1355.5 C 907.167,1355.5 928.833,1355.5 950.5,1355.5C 950.5,1371.83 950.5,1388.17 950.5,1404.5C 947.167,1404.5 943.833,1404.5 940.5,1404.5C 940.5,1391.5 940.5,1378.5 940.5,1365.5C 938.833,1365.5 937.167,1365.5 935.5,1365.5C 935.5,1378.5 935.5,1391.5 935.5,1404.5C 932.167,1404.5 928.833,1404.5 925.5,1404.5C 925.666,1396.49 925.5,1388.49 925,1380.5C 922.011,1378.33 918.845,1378 915.5,1379.5C 915.5,1381.83 915.5,1384.17 915.5,1386.5C 911.833,1386.5 908.167,1386.5 904.5,1386.5C 904.5,1384.17 904.5,1381.83 904.5,1379.5C 901.167,1379.5 897.833,1379.5 894.5,1379.5C 894.334,1384.18 894.501,1388.85 895,1393.5C 895.5,1394 896,1394.5 896.5,1395C 900.821,1395.5 905.154,1395.67 909.5,1395.5C 909.5,1398.5 909.5,1401.5 909.5,1404.5C 902.825,1404.67 896.158,1404.5 889.5,1404C 888.667,1403.17 887.833,1402.33 887,1401.5C 885.574,1391.25 885.074,1380.91 885.5,1370.5C 892.841,1370.33 900.174,1370.5 907.5,1371C 909.833,1374.33 912.167,1374.33 914.5,1371C 918.486,1370.5 922.486,1370.33 926.5,1370.5C 926.5,1368.83 926.5,1367.17 926.5,1365.5C 912.833,1365.5 899.167,1365.5 885.5,1365.5C 885.5,1362.17 885.5,1358.83 885.5,1355.5 Z"/></g>
<g><path style="opacity:0.918" fill="#8e2a85" d="M 976.5,1355.5 C 1004.17,1355.5 1031.83,1355.5 1059.5,1355.5C 1059.5,1371.83 1059.5,1388.17 1059.5,1404.5C 1056.17,1404.5 1052.83,1404.5 1049.5,1404.5C 1049.5,1391.5 1049.5,1378.5 1049.5,1365.5C 1045.12,1365.17 1040.78,1365.51 1036.5,1366.5C 1035.69,1368.07 1035.36,1369.74 1035.5,1371.5C 1044.51,1372.03 1048.17,1376.86 1046.5,1386C 1046.68,1391.61 1045.68,1396.94 1043.5,1402C 1037.73,1404.23 1031.73,1405.06 1025.5,1404.5C 1025.5,1401.5 1025.5,1398.5 1025.5,1395.5C 1035.83,1396.31 1039.33,1391.64 1036,1381.5C 1035.17,1380.67 1034.33,1379.83 1033.5,1379C 1030.52,1378.5 1027.52,1378.34 1024.5,1378.5C 1024.03,1374.13 1025.03,1370.13 1027.5,1366.5C 1024.91,1365.52 1022.25,1365.19 1019.5,1365.5C 1019.5,1378.5 1019.5,1391.5 1019.5,1404.5C 1007.83,1404.67 996.162,1404.5 984.5,1404C 980.23,1402.32 977.73,1399.15 977,1394.5C 976.5,1386.51 976.334,1378.51 976.5,1370.5C 987.833,1370.5 999.167,1370.5 1010.5,1370.5C 1010.5,1368.83 1010.5,1367.17 1010.5,1365.5C 999.167,1365.5 987.833,1365.5 976.5,1365.5C 976.5,1362.17 976.5,1358.83 976.5,1355.5 Z M 985.5,1379.5 C 993.833,1379.5 1002.17,1379.5 1010.5,1379.5C 1010.5,1385.5 1010.5,1391.5 1010.5,1397.5C 1003.05,1397.93 995.719,1397.43 988.5,1396C 987.107,1394.83 986.273,1393.33 986,1391.5C 985.501,1387.51 985.334,1383.51 985.5,1379.5 Z"/></g>
<g><path style="opacity:0.923" fill="#8e2a85" d="M 1101.5,1355.5 C 1121.17,1355.5 1140.83,1355.5 1160.5,1355.5C 1160.5,1358.83 1160.5,1362.17 1160.5,1365.5C 1155.17,1365.5 1149.83,1365.5 1144.5,1365.5C 1144.5,1367.17 1144.5,1368.83 1144.5,1370.5C 1150.17,1370.5 1155.83,1370.5 1161.5,1370.5C 1161.67,1378.17 1161.5,1385.84 1161,1393.5C 1160.53,1394.93 1159.7,1396.1 1158.5,1397C 1155.27,1398.2 1151.94,1398.7 1148.5,1398.5C 1148.5,1395.5 1148.5,1392.5 1148.5,1389.5C 1149.82,1389.67 1150.99,1389.34 1152,1388.5C 1155.07,1381.08 1152.57,1378.41 1144.5,1380.5C 1144.5,1388.5 1144.5,1396.5 1144.5,1404.5C 1132.83,1404.67 1121.16,1404.5 1109.5,1404C 1105.23,1402.32 1102.73,1399.15 1102,1394.5C 1101.5,1386.51 1101.33,1378.51 1101.5,1370.5C 1112.83,1370.5 1124.17,1370.5 1135.5,1370.5C 1135.5,1368.83 1135.5,1367.17 1135.5,1365.5C 1124.17,1365.5 1112.83,1365.5 1101.5,1365.5C 1101.5,1362.17 1101.5,1358.83 1101.5,1355.5 Z M 1110.5,1379.5 C 1118.51,1379.33 1126.51,1379.5 1134.5,1380C 1135.47,1385.74 1135.81,1391.57 1135.5,1397.5C 1128.05,1397.93 1120.72,1397.43 1113.5,1396C 1112.11,1394.83 1111.27,1393.33 1111,1391.5C 1110.5,1387.51 1110.33,1383.51 1110.5,1379.5 Z"/></g>
<g><path style="opacity:0.916" fill="#8e2a85" d="M 1527.5,1363.5 C 1525.5,1363.5 1523.5,1363.5 1521.5,1363.5C 1521.5,1377.17 1521.5,1390.83 1521.5,1404.5C 1518.5,1404.5 1515.5,1404.5 1512.5,1404.5C 1512.5,1390.83 1512.5,1377.17 1512.5,1363.5C 1505.55,1361.79 1501.55,1364.45 1500.5,1371.5C 1502.43,1377.47 1504.27,1383.47 1506,1389.5C 1508.3,1398.06 1505.14,1403.23 1496.5,1405C 1494.19,1405.5 1491.86,1405.66 1489.5,1405.5C 1489.34,1403.14 1489.5,1400.81 1490,1398.5C 1493.36,1397.75 1495.86,1395.91 1497.5,1393C 1495.09,1386.43 1493.09,1379.77 1491.5,1373C 1491.36,1369.62 1492.36,1366.62 1494.5,1364C 1491.52,1363.5 1488.52,1363.34 1485.5,1363.5C 1485.5,1377.17 1485.5,1390.83 1485.5,1404.5C 1482.81,1404.66 1480.15,1404.5 1477.5,1404C 1468.45,1394.06 1457.29,1387.89 1444,1385.5C 1442.69,1382.5 1442.52,1379.5 1443.5,1376.5C 1452.54,1371.65 1461.87,1367.49 1471.5,1364C 1460.84,1363.5 1450.17,1363.33 1439.5,1363.5C 1439.5,1360.83 1439.5,1358.17 1439.5,1355.5C 1468.83,1355.5 1498.17,1355.5 1527.5,1355.5C 1527.5,1358.17 1527.5,1360.83 1527.5,1363.5 Z M 1475.5,1372.5 C 1476.65,1378.32 1476.82,1384.32 1476,1390.5C 1470.75,1386.12 1464.91,1382.62 1458.5,1380C 1464.39,1377.77 1470.06,1375.27 1475.5,1372.5 Z"/></g>
<g><path style="opacity:0.892" fill="#8e2a85" d="M 1527.5,1363.5 C 1532.79,1356.36 1539.46,1354.86 1547.5,1359C 1551.77,1364.99 1552.6,1371.49 1550,1378.5C 1548.79,1380.05 1547.29,1381.22 1545.5,1382C 1531.23,1383.9 1525.23,1377.73 1527.5,1363.5 Z M 1538.5,1365.5 C 1542.52,1366.2 1544.02,1368.53 1543,1372.5C 1539.12,1375.32 1536.62,1374.32 1535.5,1369.5C 1535.79,1367.56 1536.79,1366.22 1538.5,1365.5 Z"/></g>
<g><path style="opacity:0.892" fill="#8e2a85" d="M 849.5,1358.5 C 857.84,1358.33 866.173,1358.5 874.5,1359C 876.049,1360.21 877.215,1361.71 878,1363.5C 878.499,1369.49 878.666,1375.49 878.5,1381.5C 871.825,1381.67 865.158,1381.5 858.5,1381C 853.667,1380.17 850.833,1377.33 850,1372.5C 849.501,1367.85 849.334,1363.18 849.5,1358.5 Z M 861.5,1366.5 C 865.219,1366 868.553,1366.84 871.5,1369C 867.167,1372.33 862.833,1372.33 858.5,1369C 859.571,1368.15 860.571,1367.31 861.5,1366.5 Z"/></g>
<g><path style="opacity:0.898" fill="#8e2a85" d="M 1066.5,1358.5 C 1074.84,1358.33 1083.17,1358.5 1091.5,1359C 1093.05,1360.21 1094.22,1361.71 1095,1363.5C 1095.5,1369.49 1095.67,1375.49 1095.5,1381.5C 1088.83,1381.67 1082.16,1381.5 1075.5,1381C 1070.67,1380.17 1067.83,1377.33 1067,1372.5C 1066.5,1367.85 1066.33,1363.18 1066.5,1358.5 Z M 1078.5,1366.5 C 1082.22,1366 1085.55,1366.84 1088.5,1369C 1084.17,1372.33 1079.83,1372.33 1075.5,1369C 1076.57,1368.15 1077.57,1367.31 1078.5,1366.5 Z"/></g>
<g><path style="opacity:0.884" fill="#8e2a85" d="M 753.5,1375.5 C 760.5,1375.5 767.5,1375.5 774.5,1375.5C 774.5,1379.5 774.5,1383.5 774.5,1387.5C 767.5,1387.5 760.5,1387.5 753.5,1387.5C 753.5,1383.5 753.5,1379.5 753.5,1375.5 Z"/></g>
<g><path style="opacity:0.864" fill="#8e2a85" d="M 1527.5,1381.5 C 1537.97,1387.79 1547.47,1395.46 1556,1404.5C 1556.82,1407.88 1556.66,1411.22 1555.5,1414.5C 1546.76,1406.92 1537.59,1399.92 1528,1393.5C 1527.5,1389.51 1527.33,1385.51 1527.5,1381.5 Z"/></g>
<g><path style="opacity:0.867" fill="#8e2a85" d="M 1621.5,1381.5 C 1631.97,1387.79 1641.47,1395.46 1650,1404.5C 1650.82,1407.88 1650.66,1411.22 1649.5,1414.5C 1640.76,1406.92 1631.59,1399.92 1622,1393.5C 1621.5,1389.51 1621.33,1385.51 1621.5,1381.5 Z"/></g>
<g><path style="opacity:0.87" fill="#8e2a85" d="M 851.5,1384.5 C 860.028,1388.26 868.695,1391.76 877.5,1395C 878.451,1398.06 878.784,1401.22 878.5,1404.5C 869.643,1401.74 860.977,1398.41 852.5,1394.5C 851.513,1391.23 851.18,1387.9 851.5,1384.5 Z"/></g>
<g><path style="opacity:0.871" fill="#8e2a85" d="M 1068.5,1384.5 C 1077.03,1388.26 1085.69,1391.76 1094.5,1395C 1095.45,1398.06 1095.78,1401.22 1095.5,1404.5C 1086.64,1401.74 1077.98,1398.41 1069.5,1394.5C 1068.51,1391.23 1068.18,1387.9 1068.5,1384.5 Z"/></g>
<g><path style="opacity:0.836" fill="#8e2a85" d="M 742.5,1401.5 C 748.442,1402.43 754.109,1404.26 759.5,1407C 757.833,1408.67 756.167,1410.33 754.5,1412C 748.774,1411.54 743.274,1410.04 738,1407.5C 739.138,1405.49 740.638,1403.49 742.5,1401.5 Z"/></g>
</svg>
